<svg width="73" height="90" viewBox="0 0 73 90" fill="none" xmlns="http://www.w3.org/2000/svg">
<path d="M6.4603 78.0566H8.9683V87.1841C8.9683 88.6848 7.91987 89.5893 6.37807 89.5893H3.2328C1.67044 89.5893 0.642578 88.6848 0.642578 87.1841V78.0566H3.19169V86.8346C3.19169 87.0402 3.35615 87.2252 3.58228 87.2252H6.09027C6.29584 87.2252 6.48086 87.0607 6.48086 86.8346V78.0566H6.4603ZM9.99616 87.0402H12.5042V89.5893H9.99616V87.0402ZM13.5526 80.174C13.5526 78.9612 14.4365 78.0566 15.8139 78.0566H19.4525C20.8299 78.0566 21.7138 78.9612 21.7138 80.174V81.8597H19.2675V80.6674C19.2675 80.4618 19.1031 80.2768 18.8769 80.2768H16.3895C16.1634 80.2768 15.9989 80.4413 15.9989 80.6674V81.7364C15.9989 81.9009 16.0811 82.0653 16.3484 82.1475L20.1104 83.2576C21.3849 83.6277 21.7138 84.2033 21.7138 85.5395V87.4719C21.7138 88.6642 20.8299 89.5893 19.4731 89.5893H15.7728C14.416 89.5893 13.532 88.6642 13.532 87.4719V85.6012H15.9578V86.9785C15.9578 87.1841 16.1222 87.3691 16.3484 87.3691H18.8564C19.0825 87.3691 19.247 87.2047 19.247 86.9785V85.7862C19.247 85.6217 19.1236 85.4573 18.8975 85.3956L15.1355 84.2855C13.8609 83.9155 13.532 83.3399 13.532 82.0036L13.5526 80.174ZM22.7417 87.0402H25.2497V89.5893H22.7417V87.0402ZM35.7545 87.6569H31.7047L31.1702 89.5893H28.5594L32.0131 78.0566H35.6517L38.9614 89.5893H36.3095L35.7545 87.6569ZM35.1378 85.4367L33.7399 80.3179L32.3214 85.4367H35.1378ZM47.5339 84.82L46.9171 85.3339L48.9523 89.5893H46.1565L44.3475 85.6423H42.6823V89.5893H40.1332V78.0566H45.9715C47.4105 78.0566 48.4178 78.9406 48.4178 80.2563V82.5176C48.4384 83.6688 48.315 84.1622 47.5339 84.82ZM45.9098 83.0521V80.7702C45.9098 80.5646 45.7454 80.3796 45.5192 80.3796H42.7029V83.4221H45.5192C45.7454 83.4221 45.9098 83.2576 45.9098 83.0521ZM57.5453 78.0566H60.8139V89.5893H58.3881V82.3942L55.9007 89.5893H55.1812L52.6937 82.3942V89.5893H50.3502V78.0566H53.6188L55.5923 84.3061L57.5453 78.0566ZM72.1204 78.0566L68.2351 85.1695V89.5687H65.686V85.19L61.9034 78.0566H64.8637L67.0633 82.5176L69.2424 78.0566H72.1204Z" fill="white"/>
<path d="M71.0913 25.6761H44.5312L36.3289 0.411133L28.1265 25.6761H1.56641L23.0488 41.2791L14.8464 66.5441L36.3289 50.9411L57.8113 66.5441L49.6089 41.2791L71.0913 25.6761ZM36.3289 43.1704L26.7697 50.1188L30.4289 38.8739L20.8697 31.9255H32.6902L36.3494 20.6807L40.0086 31.9255H51.8291L42.2699 38.8739L45.9291 50.1188L36.3289 43.1704Z" fill="#FFCC01"/>
</svg>
